<?xml version="1.0" encoding="UTF-8" standalone="no"?>
<!DOCTYPE svg PUBLIC "-//W3C//DTD SVG 1.1//EN" "http://www.w3.org/Graphics/SVG/1.1/DTD/svg11.dtd">
<svg width="100%" height="100%" viewBox="0 0 27 13" version="1.1" xmlns="http://www.w3.org/2000/svg" xmlns:xlink="http://www.w3.org/1999/xlink" xml:space="preserve" xmlns:serif="http://www.serif.com/" style="fill-rule:evenodd;clip-rule:evenodd;stroke-linejoin:round;stroke-miterlimit:2;">
    <g transform="matrix(0.75,0,0,0.75,0,0)">
        <g transform="matrix(0.28754,0,0,0.28754,0,0)">
            <path d="M95.8,0L94.1,0C83.5,0.6 73.8,5.2 65.1,13.8L62.5,16.4L62.5,16.5L59.9,13.9C51.2,5.3 41.4,0.6 30.8,0.1L29.3,0.1C13.1,0.1 0,12.9 0,28.6C0,44.4 13.2,57.2 29.3,57.2L31,57.2C41.6,56.6 51.3,52 60,43.4L62.6,40.8L62.6,40.7L65.2,43.3C73.9,51.9 83.7,56.5 94.4,57.1L95.9,57.1C112.1,57.1 125.2,44.3 125.2,28.5C125.2,12.7 111.9,0 95.8,0ZM95.8,43L94.8,43C85,42.4 77.5,36.2 73,31L70.8,28.5L73,26C77.5,20.9 84.9,14.7 94.6,14.1L95.8,14.1C96.6,14.1 97.4,14.2 98.1,14.3C89.9,12 77,16.1 62.5,31.7C40.2,55.7 22.7,44.8 17.2,37.3L17.3,37.4C15.4,35 14.2,32 14.2,28.7C14.2,20.8 21,14.3 29.3,14.3L30.3,14.3C40.1,14.9 47.5,21.1 52.1,26.3L54.3,28.8L52.1,31.3C47.6,36.3 40.2,42.5 30.5,43L29.3,43C28.5,43 27.7,42.9 27,42.8C35.2,45.2 45.9,42.2 62.6,25.5C85.5,2.4 102.4,12.4 107.9,20L107.8,19.9C109.7,22.3 110.9,25.3 110.9,28.6C110.9,36.5 104.1,43 95.8,43Z" style="fill:rgb(235,90,43);fill-rule:nonzero;"/>
        </g>
    </g>
</svg>
